<svg width="36" height="36" viewBox="0 0 36 36" fill="none" xmlns="http://www.w3.org/2000/svg">
<path d="M16.7844 30.3361C17.5575 30.888 18.5949 30.888 19.368 30.3361C23.2317 27.5779 26.9317 24.4046 29.4912 20.3439C30.7734 18.3095 31.3109 16.6643 31.5223 15.319C31.6077 14.8453 31.6523 14.3566 31.6523 13.857C31.6523 9.5177 28.2846 6 24.1304 6C21.6478 6 19.4461 7.2563 18.0762 9.19348C16.7063 7.2563 14.5046 6 12.022 6C7.86781 6 4.50015 9.5177 4.50015 13.857C4.50015 14.3566 4.54479 14.8453 4.63013 15.319C4.84153 16.6643 5.37901 18.3095 6.66127 20.3439C9.22076 24.4046 12.9207 27.5779 16.7844 30.3361Z" fill="white" fill-opacity="0.8"/>
<path d="M16.7844 27.0335C17.5575 27.5854 18.5949 27.5854 19.368 27.0335C23.6214 24.7389 25.1511 23.9741 29.4912 20.3439C30.7734 18.3095 31.3109 16.6643 31.5223 15.319C31.6077 14.8453 31.6523 14.3566 31.6523 13.857C31.6523 9.5177 28.2846 6 24.1304 6C21.6478 6 19.4461 7.2563 18.0762 9.19348C16.7063 7.2563 14.5046 6 12.022 6C7.86781 6 4.50015 9.5177 4.50015 13.857C4.50015 14.3566 4.54479 14.8453 4.63013 15.319C4.84153 16.6643 5.37901 18.3095 6.66127 20.3439C11.3838 23.9741 12.9135 24.7389 16.7844 27.0335Z" fill="white" fill-opacity="0.8"/>
</svg>
