<svg width="36" height="36" viewBox="0 0 36 36" fill="none" xmlns="http://www.w3.org/2000/svg">
<path d="M31.2241 19.6971C31.5835 19.3725 31.593 18.8116 31.2448 18.475L20.1343 7.73663C19.6035 7.2236 18.7168 7.59975 18.7168 8.33797V12.8206C14.5638 12.7564 11.4437 13.8427 9.12494 15.5073C6.76997 17.1979 5.2695 19.465 4.34488 21.6623C3.42113 23.8576 3.06513 25.9992 3.00844 27.4676C2.98049 28.1918 3.02367 28.7894 3.12744 29.1546C3.15395 29.2479 3.18978 29.3458 3.24128 29.4324C3.28662 29.5087 3.38253 29.6414 3.55681 29.6968C3.7665 29.7635 3.94447 29.678 4.04763 29.5894C4.14074 29.5094 4.2033 29.4064 4.2466 29.3198L4.2521 29.3088L4.25652 29.2985L4.258 29.2951L4.26654 29.2765C4.27479 29.2589 4.28821 29.2309 4.3072 29.1937C4.3452 29.1191 4.40545 29.0075 4.49113 28.8667C4.66254 28.5851 4.93539 28.1876 5.33506 27.738C6.13338 26.8399 7.4402 25.7308 9.46387 24.9213C10.6158 24.4606 12.5358 24.2509 14.4183 24.217C16.2148 24.1846 17.8903 24.3131 18.7168 24.4953V29.1094C18.7168 29.8341 19.5757 30.2158 20.1136 29.7301L31.2241 19.6971Z" fill="white" fill-opacity="0.8"/>
<path d="M27.8013 18.5035C28.6039 17.5706 27.8013 16.2398 27.8013 16.2398L26.4164 13.8115L20.1343 7.73663C19.6035 7.2236 18.7168 7.59975 18.7168 8.33797V12.8206C14.5638 12.7564 11.4437 13.8427 9.12494 15.5073C6.76997 17.1979 5.2695 19.465 4.34488 21.6623C3.42113 23.8576 3.06513 25.9992 3.00844 27.4676C2.98049 28.1918 3.02367 28.7894 3.12744 29.1546C3.15395 29.2479 3.18978 29.3458 3.24128 29.4324C3.28662 29.5087 3.38253 29.6414 3.55681 29.6968C3.7665 29.7635 3.94447 29.678 4.04763 29.5894C4.14074 29.5094 4.2033 29.4064 4.2466 29.3198L4.2521 29.3088L4.25652 29.2985L4.258 29.2951L4.26654 29.2765C4.27479 29.2589 4.28821 29.2309 4.3072 29.1937C4.3452 29.1191 4.40545 29.0075 4.49113 28.8667C4.66254 28.5851 4.93539 28.1876 5.33506 27.738C6.13338 26.8399 10.5629 23.6968 13.0718 22.4424C15.1626 21.1879 18.7168 20.3516 18.7168 20.3516V25.3694C18.7168 26.0941 19.5757 26.4758 20.1136 25.9901L27.8013 18.5035Z" fill="white" fill-opacity="0.8"/>
</svg>
