<svg width="18" height="13" viewBox="0 0 18 13" fill="none" xmlns="http://www.w3.org/2000/svg">
<path fill-rule="evenodd" clip-rule="evenodd" d="M9.17243 2.9006C11.639 2.90071 14.0112 3.79823 15.7988 5.40768C15.9335 5.53194 16.1486 5.53037 16.2812 5.40417L17.568 4.17435C17.6351 4.11034 17.6725 4.02363 17.672 3.93342C17.6714 3.84321 17.6329 3.75692 17.565 3.69366C12.8731 -0.564554 5.47104 -0.564554 0.779129 3.69366C0.711164 3.75688 0.672601 3.84314 0.671974 3.93335C0.671348 4.02356 0.708709 4.11029 0.77579 4.17435L2.06293 5.40417C2.19542 5.53056 2.41075 5.53213 2.54528 5.40768C4.33312 3.79813 6.70563 2.9006 9.17243 2.9006ZM9.17066 7.00849C10.5168 7.00841 11.8148 7.50652 12.8126 8.40604C12.9476 8.5337 13.1602 8.53094 13.2917 8.3998L14.5684 7.11563C14.6356 7.04827 14.6729 6.95689 14.6719 6.86194C14.671 6.76699 14.6318 6.67638 14.5632 6.6104C11.5247 3.79653 6.81919 3.79653 3.78068 6.6104C3.71204 6.67638 3.67288 6.76703 3.67198 6.86201C3.67108 6.957 3.70852 7.04837 3.77589 7.11563L5.05216 8.3998C5.18372 8.53094 5.39631 8.5337 5.53127 8.40604C6.52841 7.50712 7.82545 7.00905 9.17066 7.00849ZM11.6719 9.72765C11.6738 9.83019 11.6371 9.92906 11.5703 10.0009L9.41163 12.3903C9.34835 12.4605 9.26208 12.5 9.17206 12.5C9.08204 12.5 8.99577 12.4605 8.93249 12.3903L6.77345 10.0009C6.70676 9.92901 6.67006 9.83011 6.67204 9.72756C6.67402 9.62502 6.71449 9.52791 6.7839 9.45918C8.16251 8.18027 10.1816 8.18027 11.5602 9.45918C11.6296 9.52797 11.67 9.62511 11.6719 9.72765Z" fill="white"/>
</svg>
