<svg width="20" height="13" viewBox="0 0 20 13" fill="none" xmlns="http://www.w3.org/2000/svg">
<path fill-rule="evenodd" clip-rule="evenodd" d="M19.672 1.625C19.672 1.00368 19.1944 0.5 18.6053 0.5H17.5386C16.9495 0.5 16.472 1.00368 16.472 1.625V11.375C16.472 11.9963 16.9495 12.5 17.5386 12.5H18.6053C19.1944 12.5 19.672 11.9963 19.672 11.375V1.625ZM12.2386 2.9H13.3053C13.8944 2.9 14.372 3.41577 14.372 4.052V11.348C14.372 11.9842 13.8944 12.5 13.3053 12.5H12.2386C11.6495 12.5 11.172 11.9842 11.172 11.348V4.052C11.172 3.41577 11.6495 2.9 12.2386 2.9ZM7.90529 5.5H6.83862C6.24952 5.5 5.77195 6.02233 5.77195 6.66667V11.3333C5.77195 11.9777 6.24952 12.5 6.83862 12.5H7.90529C8.49439 12.5 8.97195 11.9777 8.97195 11.3333V6.66667C8.97195 6.02233 8.49439 5.5 7.90529 5.5ZM2.60529 7.9H1.53862C0.949517 7.9 0.471954 8.41487 0.471954 9.05V11.35C0.471954 11.9851 0.949517 12.5 1.53862 12.5H2.60529C3.19439 12.5 3.67195 11.9851 3.67195 11.35V9.05C3.67195 8.41487 3.19439 7.9 2.60529 7.9Z" fill="white"/>
</svg>
