<svg width="32" height="33" viewBox="0 0 32 33" fill="none" xmlns="http://www.w3.org/2000/svg">
<path fill-rule="evenodd" clip-rule="evenodd" d="M21.2859 22.1231C19.6207 23.3433 17.554 24.0662 15.3147 24.0662C9.80228 24.0662 5.33334 19.686 5.33334 14.2831C5.33334 8.88015 9.80228 4.5 15.3147 4.5C20.8272 4.5 25.2962 8.88015 25.2962 14.2831C25.2962 16.7079 24.3961 18.9268 22.9056 20.6361L27.8375 25.4701C28.0542 25.6824 28.0542 26.0266 27.8375 26.2386L27.0534 27.0074C26.8368 27.2197 26.4856 27.2197 26.2693 27.0074L21.2859 22.1231ZM23.0781 14.2831C23.0781 18.4854 19.6023 21.8922 15.3147 21.8922C11.0272 21.8922 7.55143 18.4854 7.55143 14.2831C7.55143 10.0807 11.0272 6.67402 15.3147 6.67402C19.6023 6.67402 23.0781 10.0807 23.0781 14.2831Z" fill="white"/>
</svg>
